<svg width="59" height="59" viewBox="0 0 59 59" fill="none" xmlns="http://www.w3.org/2000/svg">
<path d="M46.7083 7.375C48.0123 7.375 49.2629 7.893 50.1849 8.81506C51.107 9.73711 51.625 10.9877 51.625 12.2917V46.7083C51.625 48.0123 51.107 49.2629 50.1849 50.1849C49.2629 51.107 48.0123 51.625 46.7083 51.625H12.2917C10.9877 51.625 9.73711 51.107 8.81506 50.1849C7.893 49.2629 7.375 48.0123 7.375 46.7083V12.2917C7.375 10.9877 7.893 9.73711 8.81506 8.81506C9.73711 7.893 10.9877 7.375 12.2917 7.375H46.7083ZM45.4792 45.4792V32.45C45.4792 30.3245 44.6348 28.2861 43.1319 26.7831C41.6289 25.2802 39.5905 24.4358 37.465 24.4358C35.3754 24.4358 32.9417 25.7142 31.7617 27.6317V24.9029H24.9029V45.4792H31.7617V33.3596C31.7617 31.4667 33.2858 29.9179 35.1788 29.9179C36.0915 29.9179 36.9669 30.2805 37.6124 30.926C38.2578 31.5714 38.6204 32.4468 38.6204 33.3596V45.4792H45.4792ZM16.9133 21.0433C18.0087 21.0433 19.0592 20.6082 19.8337 19.8337C20.6082 19.0592 21.0433 18.0087 21.0433 16.9133C21.0433 14.6271 19.1996 12.7587 16.9133 12.7587C15.8115 12.7587 14.7547 13.1965 13.9756 13.9756C13.1965 14.7547 12.7587 15.8115 12.7587 16.9133C12.7587 19.1996 14.6271 21.0433 16.9133 21.0433ZM20.3304 45.4792V24.9029H13.5208V45.4792H20.3304Z" fill="#D9D9D9"/>
</svg>
