<svg width="59" height="59" viewBox="0 0 59 59" fill="none" xmlns="http://www.w3.org/2000/svg">
<path d="M19.175 4.91666H39.825C47.6916 4.91666 54.0833 11.3083 54.0833 19.175V39.825C54.0833 43.6065 52.5811 47.2332 49.9071 49.9072C47.2332 52.5811 43.6065 54.0833 39.825 54.0833H19.175C11.3083 54.0833 4.91663 47.6917 4.91663 39.825V19.175C4.91663 15.3934 6.41884 11.7668 9.0928 9.09283C11.7668 6.41887 15.3934 4.91666 19.175 4.91666ZM18.6833 9.83332C16.3361 9.83332 14.0851 10.7657 12.4254 12.4254C10.7657 14.0851 9.83329 16.3362 9.83329 18.6833V40.3167C9.83329 45.2087 13.7912 49.1667 18.6833 49.1667H40.3166C42.6638 49.1667 44.9148 48.2343 46.5745 46.5746C48.2342 44.9149 49.1666 42.6638 49.1666 40.3167V18.6833C49.1666 13.7912 45.2087 9.83332 40.3166 9.83332H18.6833ZM42.4062 13.5208C43.2212 13.5208 44.0028 13.8446 44.5791 14.4209C45.1554 14.9971 45.4791 15.7788 45.4791 16.5937C45.4791 17.4087 45.1554 18.1903 44.5791 18.7666C44.0028 19.3429 43.2212 19.6667 42.4062 19.6667C41.5912 19.6667 40.8096 19.3429 40.2333 18.7666C39.657 18.1903 39.3333 17.4087 39.3333 16.5937C39.3333 15.7788 39.657 14.9971 40.2333 14.4209C40.8096 13.8446 41.5912 13.5208 42.4062 13.5208ZM29.5 17.2083C32.7599 17.2083 35.8863 18.5033 38.1915 20.8085C40.4966 23.1136 41.7916 26.24 41.7916 29.5C41.7916 32.7599 40.4966 35.8864 38.1915 38.1915C35.8863 40.4966 32.7599 41.7917 29.5 41.7917C26.24 41.7917 23.1136 40.4966 20.8084 38.1915C18.5033 35.8864 17.2083 32.7599 17.2083 29.5C17.2083 26.24 18.5033 23.1136 20.8084 20.8085C23.1136 18.5033 26.24 17.2083 29.5 17.2083ZM29.5 22.125C27.544 22.125 25.6681 22.902 24.285 24.2851C22.902 25.6682 22.125 27.544 22.125 29.5C22.125 31.456 22.902 33.3318 24.285 34.7149C25.6681 36.098 27.544 36.875 29.5 36.875C31.4559 36.875 33.3318 36.098 34.7149 34.7149C36.098 33.3318 36.875 31.456 36.875 29.5C36.875 27.544 36.098 25.6682 34.7149 24.2851C33.3318 22.902 31.4559 22.125 29.5 22.125Z" fill="#D9D9D9"/>
</svg>
