<svg width="59" height="59" viewBox="0 0 59 59" fill="none" xmlns="http://www.w3.org/2000/svg">
<path d="M29.5 4.91666C26.2716 4.91666 23.0749 5.55252 20.0923 6.78795C17.1097 8.02338 14.3997 9.83417 12.1169 12.1169C7.50665 16.7272 4.91663 22.9801 4.91663 29.5C4.91663 40.3658 11.972 49.5846 21.7316 52.8542C22.9608 53.0508 23.3541 52.2887 23.3541 51.625V47.4704C16.5445 48.9454 15.0941 44.1762 15.0941 44.1762C13.9633 41.3246 12.3654 40.5625 12.3654 40.5625C10.1283 39.0383 12.5375 39.0875 12.5375 39.0875C14.9958 39.2596 16.2987 41.6196 16.2987 41.6196C18.4375 45.3562 22.0512 44.25 23.4525 43.66C23.6737 42.0621 24.3129 40.9804 25.0012 40.3658C19.5437 39.7512 13.8158 37.6371 13.8158 28.2708C13.8158 25.5421 14.75 23.3542 16.3479 21.6087C16.102 20.9942 15.2416 18.4375 16.5937 15.1187C16.5937 15.1187 18.6587 14.455 23.3541 17.6262C25.2962 17.0854 27.4104 16.815 29.5 16.815C31.5895 16.815 33.7037 17.0854 35.6458 17.6262C40.3412 14.455 42.4062 15.1187 42.4062 15.1187C43.7583 18.4375 42.8979 20.9942 42.652 21.6087C44.25 23.3542 45.1841 25.5421 45.1841 28.2708C45.1841 37.6617 39.4316 39.7267 33.9495 40.3412C34.8345 41.1033 35.6458 42.6029 35.6458 44.8892V51.625C35.6458 52.2887 36.0391 53.0754 37.2929 52.8542C47.0525 49.56 54.0833 40.3658 54.0833 29.5C54.0833 26.2717 53.4474 23.0749 52.212 20.0924C50.9766 17.1098 49.1658 14.3997 46.883 12.1169C44.6002 9.83417 41.8902 8.02338 38.9076 6.78795C35.925 5.55252 32.7283 4.91666 29.5 4.91666Z" fill="#D9D9D9"/>
</svg>
